<svg xmlns="http://www.w3.org/2000/svg" viewBox="0 0 173.8 194.42"><defs><style>.cls-1{fill:#9e005d;}.cls-2{fill:#666;}.cls-3{fill:#2e3192;}.cls-4{fill:#ccc;}.cls-5{fill:#b3b3b3;}.cls-12,.cls-6{fill:#e6e6e6;}.cls-7{fill:#fcee21;}.cls-8{fill:#662d91;}.cls-10,.cls-11,.cls-9{fill:none;stroke:#000;stroke-miterlimit:10;}.cls-9{stroke-width:2px;}.cls-11{stroke-width:0.75px;}.cls-12{opacity:0.5;}.cls-13{opacity:0.3;}</style></defs><title>Asset 1</title><g id="Layer_2" data-name="Layer 2"><g id="Wam"><path d="M169.39,93c4.42,6.23,6.15,13.14,3.17,20.38-5,12.14-20.54,18.27-32.28,13.08.54-.59,1.08-1.18,1.6-1.79,9.88,3.88,22.37-.61,27.6-10.17a17.18,17.18,0,0,0-.61-18.25c-2.48-3.86-6.39-8.26-11-9Q158,86.17,158,85C162.57,85.7,166.71,89.26,169.39,93Z" transform="translate(-0.25)"/><path class="cls-1" d="M168.87,96.27a17.18,17.18,0,0,1,.61,18.25c-5.23,9.56-17.72,14-27.6,10.17a65,65,0,0,0,16-37.41C162.48,88,166.39,92.41,168.87,96.27Z" transform="translate(-0.25)"/><path d="M158.06,82.92h0a1.13,1.13,0,0,1-2.25,0,1.13,1.13,0,0,1,2.25,0Z" transform="translate(-0.25)"/><path d="M158.06,82.93q0,1-.06,2.1a9.87,9.87,0,0,0-2.24-.1c0-.67,0-1.34.05-2A1.13,1.13,0,0,0,158.06,82.93Z" transform="translate(-0.25)"/><path d="M158,85q0,1.14-.15,2.25a8.38,8.38,0,0,0-2.24-.06c.07-.76.11-1.52.15-2.29A9.87,9.87,0,0,1,158,85Z" transform="translate(-0.25)"/><path d="M155.61,87.22a8.38,8.38,0,0,1,2.24.06,65,65,0,0,1-16,37.41,18.76,18.76,0,0,1-2.13-1A62,62,0,0,0,155.61,87.22Z" transform="translate(-0.25)"/><path d="M158.06,82.91a1.13,1.13,0,0,0-2.25,0C155.29,35.71,102.93,7.3,61,24.59c-21.71,8.95-39,29-40.8,53A57.49,57.49,0,0,0,20,83.42a9.24,9.24,0,0,0-2.2-.48,63,63,0,0,1,4.95-24.59,65.16,65.16,0,0,1,18.5-24.6A70.18,70.18,0,0,1,68.13,19.82c21.16-5.6,44.83-2.13,62.61,11C147.45,43.24,157.83,62,158.06,82.91Z" transform="translate(-0.25)"/><path class="cls-2" d="M155.81,82.92c0,.67,0,1.34-.05,2s-.08,1.53-.15,2.29a62,62,0,0,1-15.86,36.47c-.51.58-1,1.15-1.58,1.71a68.38,68.38,0,0,1-49.09,21c-.88,0-1.76,0-2.64,0A73.35,73.35,0,0,1,50.55,136a63.21,63.21,0,0,1-15.38-13c-.5-.58-1-1.16-1.45-1.76A62.65,62.65,0,0,1,20.13,85.83c-.05-.8-.08-1.6-.09-2.41a57.49,57.49,0,0,1,.16-5.86c1.84-24,19.09-44,40.8-53C102.93,7.3,155.29,35.71,155.81,82.92Zm-5.32,3.9c.06-1.08.09-2.16.09-3.26,0-33.31-27.87-60.32-62.25-60.32s-62.24,27-62.24,60.32a59,59,0,0,0,2,15.35c0,.14.2.65.42,1.3.46,1.43,1.16,3.55,1.24,3.85a59.41,59.41,0,0,0,7.79,14.42,62.73,62.73,0,0,0,49.15,25.39l1.61,0A62.93,62.93,0,0,0,136,122.38a59.56,59.56,0,0,0,12.85-24.56c.18-.74.36-1.48.51-2.23A57.46,57.46,0,0,0,150.49,86.82Z" transform="translate(-0.25)"/><path d="M154.77,156.53a1,1,0,0,1-.28,1.1c.92-1.11-.67-2.71-1.6-1.6l-.46.57c-2.25-7.19-2.86-19.73-9.34-24.25l.12-.39a1.13,1.13,0,0,0-2.14-.68,11.06,11.06,0,0,0-5.07-.54h-.08c.84-.76,1.67-1.54,2.47-2.34C151.23,129,151.55,147,154.77,156.53Z" transform="translate(-0.25)"/><path d="M152.89,156c.93-1.11,2.52.49,1.6,1.6h0a1.19,1.19,0,0,1-1.88-.51c-.06-.17-.12-.35-.17-.53Z" transform="translate(-0.25)"/><path d="M152.6,157.13a1.19,1.19,0,0,0,1.88.51c-3.17,3.79-6.09,7-10.74,5.61.08-.5.14-1,.19-1.54l-1.69,1a9.6,9.6,0,0,0,1.5.56c-2.59,16.89-21.7,23-38.24,24.73.41-.81.78-1.63,1.14-2.45,15.57-1.85,33.57-7.56,35-23.82a1.14,1.14,0,0,1,1.69-1c4.34,2,6.79-1.34,9.06-4.14C152.48,156.78,152.54,157,152.6,157.13Z" transform="translate(-0.25)"/><path class="cls-3" d="M150.58,83.56c0,1.1,0,2.18-.09,3.26a57.46,57.46,0,0,1-1.15,8.77l-.67-.14s-1.43.64-4.13,1.6c-1.54-18-8.18-41.17-25.21-48.81a31.24,31.24,0,0,0-23.68-.75,21.38,21.38,0,0,0-9,6.83c-1.69,2.13-.73,3.05-3,1.21a40.42,40.42,0,0,0-5.13-3.6C52.1,36,34.83,76.86,32,100l0,.34L29.24,100l-.7.18c-.22-.65-.38-1.16-.42-1.3a59,59,0,0,1-2-15.35c0-33.31,27.87-60.32,62.24-60.32S150.58,50.25,150.58,83.56Z" transform="translate(-0.25)"/><path class="cls-1" d="M143.09,132.35c6.48,4.52,7.09,17.06,9.34,24.25-2.27,2.8-4.72,6.15-9.06,4.14a1.14,1.14,0,0,0-1.69,1c-1.47,16.26-19.47,22-35,23.82-.88.11-1.75.2-2.6.28-2.19.21-4.3.34-6.29.43l-2.31.07-.88,0c-1.46,0-2.92,0-4.39,0-.75,0-1.5,0-2.25-.07-2-.09-4-.24-6.06-.45-.76-.08-1.51-.17-2.26-.27a96.54,96.54,0,0,1-15.2-3.17c-8.15-2.42-17.61-7.07-19.75-15.67l.08,0a1.12,1.12,0,0,0,.52-1.27l-1.09-2.79a1.13,1.13,0,0,0-2.21.3,20,20,0,0,0,.17,2.72,6.48,6.48,0,0,0-.8.24c-4.37,1.6-8.74-3.86-10.89-7,1.76-5.93,2.46-13.46,5.39-19.32,5.27,3.34,9.66,8.16,15.35,10.81,8.89,4.16,19.31,3.85,28.94,4.85a10.73,10.73,0,0,0-1,3.71A1.15,1.15,0,0,0,80.22,160a9.11,9.11,0,0,0,9.67-7.31c2.54,4.22,6.86,9.21,10.6,6.82a4.44,4.44,0,0,0,2-4.19C117.47,155.43,138.43,147.49,143.09,132.35Zm-9.23,33.77,6.3-4.44-7.37-2.31L130.53,152l-4.48,6.29-7.72-.11,4.6,6.19-2.48,7.31,7.3-2.46,6.18,4.63Z" transform="translate(-0.25)"/><path class="cls-4" d="M148.67,95.45l.67.14c-.15.75-.33,1.49-.51,2.23A59.56,59.56,0,0,1,136,122.38a62.93,62.93,0,0,1-47.65,21.51l-1.61,0a62.73,62.73,0,0,1-49.15-25.39,59.41,59.41,0,0,1-7.79-14.42c-.08-.3-.78-2.42-1.24-3.85l.7-.18,2.71.34c8.68,1.07,36.83,4.25,64.23,4.24a151.94,151.94,0,0,0,46.21-6.84c0,.09,0,.19,0,.28l2.21,0c0-.32-.05-.65-.08-1C147.24,96.09,148.67,95.45,148.67,95.45Z" transform="translate(-0.25)"/><path d="M144.54,97c0,.33.06.66.08,1l-2.21,0c0-.09,0-.19,0-.28Z" transform="translate(-0.25)"/><path d="M142.24,162.69l1.69-1c-.05.52-.11,1-.19,1.54A9.6,9.6,0,0,1,142.24,162.69Z" transform="translate(-0.25)"/><path d="M141.07,131.28a1.13,1.13,0,0,1,2.14.68l-.12.39A9.5,9.5,0,0,0,141.07,131.28Z" transform="translate(-0.25)"/><path d="M144.54,97l-2.15.72a88.5,88.5,0,0,0-5-22.9c-2.79-7.68-6.72-16.64-13.52-21.44C112.61,45.48,94,44.91,86.55,58.65a1.12,1.12,0,0,1-1,.56c-1.25,0-1.4-.35-2.46-1.23a36.9,36.9,0,0,0-6.65-4.61c-3.41-1.72-7.19-3-11-2.6-7.52.69-13.62,6-17.91,12.16C40.39,73.1,35.88,87.25,34.45,100H32c2.84-23.16,20.11-64,46.56-48.1a40.42,40.42,0,0,1,5.13,3.6c2.22,1.84,1.26.92,3-1.21a21.38,21.38,0,0,1,9-6.83,31.24,31.24,0,0,1,23.68.75C136.36,55.88,143,79,144.54,97Z" transform="translate(-0.25)"/><path d="M141.07,131.28a9.5,9.5,0,0,1,2,1.07c-4.66,15.14-25.62,23.08-40.64,23a5.29,5.29,0,0,0-.7-2.26c14.19.32,35.09-7.08,39.29-21.7Z" transform="translate(-0.25)"/><path d="M141.88,124.69c-.52.61-1.06,1.2-1.6,1.79a18.26,18.26,0,0,1-2.11-1.08c.54-.56,1.07-1.13,1.58-1.71A18.76,18.76,0,0,0,141.88,124.69Z" transform="translate(-0.25)"/><path class="cls-5" d="M141.07,131.28l0,.08c-4.2,14.62-25.1,22-39.29,21.7a4.63,4.63,0,0,0-.39-.59c-1.83-2.31-5.19-3.14-8.22-4.09A75.31,75.31,0,0,0,107.65,146a68.89,68.89,0,0,0,28.27-15.28H136A11.06,11.06,0,0,1,141.07,131.28Z" transform="translate(-0.25)"/><path class="cls-6" d="M137.4,74.86a88.5,88.5,0,0,1,5,22.9,151.94,151.94,0,0,1-46.21,6.84c-27.4,0-55.55-3.17-64.23-4.24l0-.34h2.46c1.43-12.78,5.94-26.93,13.08-37.1,4.29-6.11,10.39-11.47,17.91-12.16,3.85-.36,7.63.88,11,2.6A36.9,36.9,0,0,1,83.13,58c1.06.88,1.21,1.23,2.46,1.23a1.12,1.12,0,0,0,1-.56c7.41-13.74,26.06-13.17,37.33-5.22C130.68,58.23,134.61,67.19,137.4,74.86ZM118.86,79.4v0a1.69,1.69,0,0,0,0-.23c-.11-2.55-1.07-8.34-4.69-7.91-3.79.44-4.71,4.88-4.86,8.06-.11,2.42,1.08,8.57,4.7,8.14s4.65-4.63,4.84-7.78A2,2,0,0,0,118.86,79.4ZM92.34,88.87c3.68-.24,3.81-4.12,3.28-6.78-.16-.87-1.39-.63-1.45.13a.53.53,0,0,0-.26,0l-5.09.37-1.41.1L82,83a.87.87,0,0,0-.53,0,.58.58,0,0,0-.35.65c0,.27.07.56.12.86.4,2.42,1.4,5.37,4.5,4.71,1.66-.35,2.23-1.74,2.55-3.23C89.11,87.62,90.39,89,92.34,88.87ZM67.52,79.33a1,1,0,0,0,0-.25,2.42,2.42,0,0,0,0-.25c-.32-3.19-1.69-7.18-5.42-7.37s-4.8,5.35-4.76,8c0,3.23,1.78,7.43,5.45,7.63S67.5,82.08,67.52,79.33Z" transform="translate(-0.25)"/><polygon class="cls-7" points="139.91 161.68 133.61 166.12 133.68 173.84 127.5 169.21 120.2 171.66 122.68 164.35 118.08 158.16 125.8 158.28 130.28 151.99 132.54 159.37 139.91 161.68"/><path d="M140.28,126.48c-.62.66-1.25,1.3-1.89,1.93a16.31,16.31,0,0,0-2.39.08c-1.4.15-1.44,2.31-.08,2.26A68.89,68.89,0,0,1,107.65,146a75.31,75.31,0,0,1-14.51,2.35A19,19,0,0,1,89.63,147a1.16,1.16,0,0,0-.54-.15v-.46a68.38,68.38,0,0,0,49.09-21A18.26,18.26,0,0,0,140.28,126.48Z" transform="translate(-0.25)"/><path d="M136,128.49a16.31,16.31,0,0,1,2.39-.08c-.8.8-1.63,1.58-2.47,2.34C134.56,130.79,134.6,128.64,136,128.49Z" transform="translate(-0.25)"/><path d="M118.86,79.36v0a2,2,0,0,1,0,.25,1.13,1.13,0,1,1,0-.51A1.69,1.69,0,0,1,118.86,79.36Z" transform="translate(-0.25)"/><path d="M118.84,79.65c-.19,3.15-1.16,7.34-4.84,7.78s-4.81-5.72-4.7-8.14c.15-3.18,1.07-7.62,4.86-8.06,3.62-.43,4.58,5.36,4.69,7.91a1.14,1.14,0,0,0-2.24.23c0-1.32-.24-5.58-2.26-5.86-2.27-.32-2.83,4.45-2.8,5.78s.25,5.58,2.26,5.86c2.34.33,2.74-4.46,2.8-5.78A1.14,1.14,0,0,0,118.84,79.65Z" transform="translate(-0.25)"/><path class="cls-6" d="M114.35,73.51c2,.28,2.23,4.54,2.26,5.86s-.46,6.11-2.8,5.78c-2-.28-2.22-4.54-2.26-5.86S112.08,73.19,114.35,73.51Z" transform="translate(-0.25)"/><path d="M106.64,185.53c-.36.82-.73,1.64-1.14,2.45-.91.1-1.82.18-2.71.25.44-.79.86-1.6,1.25-2.42C104.89,185.73,105.76,185.64,106.64,185.53Z" transform="translate(-0.25)"/><path d="M102.79,188.23c.89-.07,1.8-.15,2.71-.25a21.33,21.33,0,0,1-2.75,4.33c-.89,1.06-2.12,2.24-3.63,2.1-2.42-.23-3.26-3.06-3.55-5.83.78,0,1.57,0,2.38-.07.23,2,.66,3.89,1.45,3.66,1.15-.33,2-1.7,2.61-2.64C102.28,189.1,102.54,188.67,102.79,188.23Z" transform="translate(-0.25)"/><path d="M104,185.81c-.39.82-.81,1.63-1.25,2.42-1.66.14-3.28.23-4.84.28-.1-.78-.16-1.57-.2-2.27C99.74,186.15,101.85,186,104,185.81Z" transform="translate(-0.25)"/><path class="cls-5" d="M102.79,188.23c-.25.44-.51.87-.78,1.3-.6.94-1.46,2.31-2.61,2.64-.79.23-1.22-1.65-1.45-3.66C99.51,188.46,101.13,188.37,102.79,188.23Z" transform="translate(-0.25)"/><path d="M102.45,155.32a4.44,4.44,0,0,1-2,4.19c-3.74,2.39-8.06-2.6-10.6-6.82a13.1,13.1,0,0,0,.34-2.91l.7.27c1.64,3.15,5,8.11,7.65,7.84,1.65-.17,1.85-1.43,1.43-2.66C100.8,155.29,101.61,155.32,102.45,155.32Z" transform="translate(-0.25)"/><path d="M101.75,153.06a5.29,5.29,0,0,1,.7,2.26c-.84,0-1.65,0-2.44-.09a4.88,4.88,0,0,0-1-1.72.92.92,0,0,1,1-.53C100.53,153,101.13,153,101.75,153.06Z" transform="translate(-0.25)"/><path d="M101.36,152.47a4.63,4.63,0,0,1,.39.59c-.62,0-1.22,0-1.8-.08a.92.92,0,0,0-1,.53,2.83,2.83,0,0,0-.71-.58,27.29,27.29,0,0,0-3.68-1.6c-1.22-.43-2.46-.81-3.67-1.28a15,15,0,0,1-.72-1.54c1,0,2-.06,2.93-.13C96.17,149.32,99.53,150.16,101.36,152.47Z" transform="translate(-0.25)"/><path class="cls-8" d="M100,155.23c.42,1.23.22,2.49-1.43,2.66-2.64.27-6-4.69-7.65-7.84,1.21.47,2.45.85,3.67,1.28a27.29,27.29,0,0,1,3.68,1.6,2.83,2.83,0,0,1,.71.58A4.88,4.88,0,0,1,100,155.23Z" transform="translate(-0.25)"/><path d="M97.75,186.24c0,.7.1,1.49.2,2.27-.81,0-1.6.06-2.38.07-.08-.78-.12-1.56-.13-2.27Z" transform="translate(-0.25)"/><path d="M95.62,82.09c.53,2.66.4,6.54-3.28,6.78-2,.13-3.23-1.25-4-2.79.14-.68.24-1.38.36-2l.41,0a4.8,4.8,0,0,0,1.26,2.46,2.45,2.45,0,0,0,4.12-2c0-.33-.06-.65-.11-1a.76.76,0,0,0-.2-1.28C94.23,81.46,95.46,81.22,95.62,82.09Z" transform="translate(-0.25)"/><path d="M95.57,188.58h-2c-1.19,0-2.49,0-3.87-.06a12.75,12.75,0,0,0,.47-2.22c1.47,0,2.93,0,4.39,0l.88,0C95.45,187,95.49,187.8,95.57,188.58Z" transform="translate(-0.25)"/><path d="M94.17,82.22a.76.76,0,0,1,.2,1.28c-.05-.35-.11-.7-.19-1.05A.6.6,0,0,1,94.17,82.22Z" transform="translate(-0.25)"/><path class="cls-5" d="M94.48,84.46a2.45,2.45,0,0,1-4.12,2A4.8,4.8,0,0,1,89.1,84l4.81-.35a.69.69,0,0,0,.46-.19C94.42,83.81,94.46,84.13,94.48,84.46Z" transform="translate(-0.25)"/><path d="M94.18,82.45c.08.35.14.7.19,1.05a.69.69,0,0,1-.46.19L89.1,84c-.11-.46-.19-.93-.25-1.35l0-.13,5.09-.37a.53.53,0,0,1,.26,0A.6.6,0,0,0,94.18,82.45Z" transform="translate(-0.25)"/><path d="M93.14,148.38c-1,.07-2,.11-2.93.13l-.06-.14a1.29,1.29,0,0,0-1.41-.76,1,1,0,0,0-.36-.47,1.07,1.07,0,0,1,.71-.28,1.16,1.16,0,0,1,.54.15A19,19,0,0,0,93.14,148.38Z" transform="translate(-0.25)"/><path d="M90.93,150l-.7-.27c0-.37,0-.74,0-1.11l-1.79.23a0,0,0,0,1,0,0l.11-.11a.87.87,0,0,0,.19-.25c.51,0,1,0,1.52,0A15,15,0,0,0,90.93,150Z" transform="translate(-0.25)"/><path d="M90.23,149.78a13.1,13.1,0,0,1-.34,2.91,26.73,26.73,0,0,1-1.82-3.51l.29-.27h0l.1.06C89.06,149.26,89.64,149.53,90.23,149.78Z" transform="translate(-0.25)"/><path d="M90.19,148.67c0,.37,0,.74,0,1.11-.59-.25-1.17-.52-1.73-.82l-.1-.06Z" transform="translate(-0.25)"/><path d="M90.15,148.37l.06.14c-.51,0-1,0-1.52,0a.9.9,0,0,0,0-.92A1.29,1.29,0,0,1,90.15,148.37Z" transform="translate(-0.25)"/><path d="M90.17,186.31a12.75,12.75,0,0,1-.47,2.22l-2.3-.09a9.6,9.6,0,0,0,.52-2.2C88.67,186.28,89.42,186.3,90.17,186.31Z" transform="translate(-0.25)"/><path d="M89.1,84l-.41,0c0-.24.1-.47.16-.69H87.4c0,.24.11.49.18.77l-.49,0c.09-.51.18-1,.31-1.5v0l1.41-.1,0,.13C88.91,83.11,89,83.58,89.1,84Z" transform="translate(-0.25)"/><path d="M89.08,146.4v.46a1.07,1.07,0,0,0-.71.28,1.07,1.07,0,0,0-1.47.05l-1.38,1.3a73.77,73.77,0,0,1-43.68-15.85l.14-.09a1.13,1.13,0,0,0-1.14-1.94c-.27.16-.54.33-.8.51a62.33,62.33,0,0,1-6.9-7,19.77,19.77,0,0,0,2-1.19,63.21,63.21,0,0,0,15.38,13,73.35,73.35,0,0,0,35.89,10.4C87.32,146.41,88.2,146.42,89.08,146.4Z" transform="translate(-0.25)"/><path d="M88.85,83.38c-.06.22-.11.45-.16.69l-1.11.08c-.07-.28-.13-.53-.18-.77Z" transform="translate(-0.25)"/><path d="M88.74,147.6a.9.9,0,0,1,0,.92h-.63a.85.85,0,0,1-.09-.22h0A.9.9,0,0,1,88.74,147.6Z" transform="translate(-0.25)"/><path d="M88.69,84.07c-.12.63-.22,1.33-.36,2a10.19,10.19,0,0,1-.75-1.93Z" transform="translate(-0.25)"/><path d="M88.06,148.54h.63a.87.87,0,0,1-.19.25l-.11.11h0A1,1,0,0,1,88.06,148.54Z" transform="translate(-0.25)"/><path d="M87.4,188.44l2.3.09c-.9,2.92-3,5.63-6.35,5.27s-4.25-3.18-4.11-6c.75.08,1.48.16,2.21.22-.13,1.71.24,3.46,2.11,3.54S86.77,190.17,87.4,188.44Z" transform="translate(-0.25)"/><path d="M88.38,147.14a1,1,0,0,1,.36.47.9.9,0,0,0-.77.7A1.21,1.21,0,0,1,88.38,147.14Z" transform="translate(-0.25)"/><path d="M88.4,148.9h0s0,0,0,0h0A0,0,0,0,0,88.4,148.9Z" transform="translate(-0.25)"/><path d="M88.38,148.89s0,0,0,0L88,149l.09.22-.1.1c0-.2,0-.41,0-.61v-.13h.12A1,1,0,0,0,88.38,148.89Z" transform="translate(-0.25)"/><path d="M88.36,148.91l-.29.27L88,149Z" transform="translate(-0.25)"/><path d="M88.07,149.18a26.73,26.73,0,0,0,1.82,3.51A9.11,9.11,0,0,1,80.22,160a1.15,1.15,0,0,1-1.13-1.13,10.73,10.73,0,0,1,1-3.71c.59.05,1.18.12,1.76.19a.94.94,0,0,0,.69-.15,9.31,9.31,0,0,0-1,2.52,9.26,9.26,0,0,1-1.3,0l1.12,1.12a8.37,8.37,0,0,1,.18-1.15c4.38-.41,6.57-4.06,6.45-8.44Z" transform="translate(-0.25)"/><path d="M88,148.32a.85.85,0,0,0,.09.22h-.12A.78.78,0,0,1,88,148.32Z" transform="translate(-0.25)"/><path class="cls-8" d="M88,149.28c.12,4.38-2.07,8-6.45,8.44a9.31,9.31,0,0,1,1-2.52.94.94,0,0,0,.35-.57A31.23,31.23,0,0,1,88,149.28Z" transform="translate(-0.25)"/><path d="M88,148.31h0a.78.78,0,0,0,0,.22c-.8,0-1.61,0-2.41,0l1.38-1.3a1.07,1.07,0,0,1,1.47-.05A1.21,1.21,0,0,0,88,148.31Z" transform="translate(-0.25)"/><path d="M87.94,148.67c0,.2,0,.41,0,.61a31.23,31.23,0,0,0-5.06,5.35,1.25,1.25,0,0,0-1-1.53l-.52-.06a32.55,32.55,0,0,1,4.18-4.55c.8,0,1.61,0,2.41,0Z" transform="translate(-0.25)"/><path d="M88.33,86.08c-.32,1.49-.89,2.88-2.55,3.23-3.1.66-4.1-2.29-4.5-4.71l1.47-.1c.16,1.38.48,2.88,2.1,3.14,1.22.19,1.65-.57,1.89-1.58.14-.62.24-1.25.35-1.88l.49,0A10.19,10.19,0,0,0,88.33,86.08Z" transform="translate(-0.25)"/><path d="M87.92,186.24a9.6,9.6,0,0,1-.52,2.2c-1.88-.09-3.88-.22-6-.41a11.08,11.08,0,0,1,.41-2.24C83.87,186,85.9,186.15,87.92,186.24Z" transform="translate(-0.25)"/><path d="M87.41,82.66v0c-.13.49-.22,1-.31,1.5l-4.34.32c0-.26-.06-.52-.09-.76A.79.79,0,0,0,82,83Z" transform="translate(-0.25)"/><path class="cls-5" d="M82.75,84.5l4.34-.32c-.11.63-.21,1.26-.35,1.88-.24,1-.67,1.77-1.89,1.58C83.23,87.38,82.91,85.88,82.75,84.5Z" transform="translate(-0.25)"/><path class="cls-5" d="M87.4,188.44c-.63,1.73-1.85,3.23-3.84,3.13s-2.24-1.83-2.11-3.54C83.52,188.22,85.52,188.35,87.4,188.44Z" transform="translate(-0.25)"/><path d="M81.87,153.1a1.25,1.25,0,0,1,1,1.53c-.12.18-.24.37-.35.57a.94.94,0,0,1-.69.15c-.58-.07-1.17-.14-1.76-.19A13.65,13.65,0,0,1,81.35,153Z" transform="translate(-0.25)"/><path d="M82.56,155.2c.11-.2.23-.39.35-.57A.94.94,0,0,1,82.56,155.2Z" transform="translate(-0.25)"/><path d="M82.75,84.5l-1.47.1c0-.3-.09-.59-.12-.86a.58.58,0,0,1,.35-.65L82,83a.79.79,0,0,1,.62.69C82.69,84,82.71,84.24,82.75,84.5Z" transform="translate(-0.25)"/><path d="M82,83l-.53,0A.87.87,0,0,1,82,83Z" transform="translate(-0.25)"/><path d="M79.6,185.52c.75.1,1.5.19,2.26.27a11.08,11.08,0,0,0-.41,2.24c-.73-.06-1.46-.14-2.21-.22A11.51,11.51,0,0,1,79.6,185.52Z" transform="translate(-0.25)"/><path class="cls-5" d="M85.53,148.49A32.55,32.55,0,0,0,81.35,153c-10-1.15-22.25-.2-31-5.7-4.68-2.92-8.71-6.87-13.37-9.8a15.25,15.25,0,0,1,4.92-4.9A73.77,73.77,0,0,0,85.53,148.49Z" transform="translate(-0.25)"/><path d="M81.52,157.72a8.37,8.37,0,0,0-.18,1.15l-1.12-1.12A9.26,9.26,0,0,0,81.52,157.72Z" transform="translate(-0.25)"/><path d="M81.35,153a13.65,13.65,0,0,0-1.24,2.12c-9.63-1-20-.69-28.94-4.85-5.69-2.65-10.08-7.47-15.35-10.81a18,18,0,0,1,1.11-2c4.66,2.93,8.69,6.88,13.37,9.8C59.1,152.84,71.34,151.89,81.35,153Z" transform="translate(-0.25)"/><path d="M79.6,185.52a11.51,11.51,0,0,0-.36,2.29c-15.26-1.66-33.36-6.57-36.73-20.14a9.28,9.28,0,0,0,2.14-1c2.14,8.6,11.6,13.25,19.75,15.67A96.54,96.54,0,0,0,79.6,185.52Z" transform="translate(-0.25)"/><path d="M67.52,79.08a1,1,0,0,1,0,.25Z" transform="translate(-0.25)"/><path d="M67.52,79.08v.25c-.14,1.19-2.13,1.1-2.25-.25v0a1.13,1.13,0,0,1,2.22-.23A2.42,2.42,0,0,1,67.52,79.08Z" transform="translate(-0.25)"/><path d="M65.27,79.08c.12,1.35,2.11,1.44,2.25.25,0,2.75-1.07,8-4.76,7.79s-5.41-4.4-5.45-7.63c0-2.68,1-8.24,4.76-8s5.1,4.18,5.42,7.37a1.13,1.13,0,0,0-2.22.23c-.12-1.29-1.06-6.2-3.4-5.32-2,.76-2.48,3.9-2.31,5.75.11,1.26,1,6.22,3.39,5.34C65.09,84,65.3,81,65.27,79.08Z" transform="translate(-0.25)"/><path class="cls-6" d="M65.27,79.08c0,1.88-.18,5-2.32,5.75-2.35.88-3.28-4.08-3.39-5.34-.17-1.85.28-5,2.31-5.75,2.34-.88,3.28,4,3.4,5.32Z" transform="translate(-0.25)"/><path d="M45.25,165.37a1.12,1.12,0,0,1-.52,1.27l-.08,0a15,15,0,0,1-.45-3.8l-2.21.3c.13.33.26.65.38,1,.63,1.61.83,1.2-.25,1.44a20,20,0,0,1-.17-2.72,1.13,1.13,0,0,1,2.21-.3Z" transform="translate(-0.25)"/><path d="M44.2,162.88a15,15,0,0,0,.45,3.8,9.28,9.28,0,0,1-2.14,1,17.21,17.21,0,0,1-.39-2.07c1.08-.24.88.17.25-1.44-.12-.33-.25-.65-.38-1Z" transform="translate(-0.25)"/><path d="M42.12,165.6a17.21,17.21,0,0,0,.39,2.07c-5.8,1.87-10.88-3-14.17-7.93a1.16,1.16,0,0,0,1.94-.43l.15-.49c2.15,3.16,6.52,8.62,10.89,7A6.48,6.48,0,0,1,42.12,165.6Z" transform="translate(-0.25)"/><path d="M40.85,130.6A1.13,1.13,0,0,1,42,132.54l-.14.09c-.61-.5-1.21-1-1.8-1.52C40.31,130.94,40.58,130.76,40.85,130.6Z" transform="translate(-0.25)"/><path d="M40.05,131.12c.59.52,1.19,1,1.8,1.52a15.25,15.25,0,0,0-4.92,4.9c-.34-.22-.69-.43-1-.63a1,1,0,0,0-1.22.09A17.63,17.63,0,0,1,40.05,131.12Z" transform="translate(-0.25)"/><path class="cls-1" d="M33.58.38a4.85,4.85,0,0,1,4.68,5,4.69,4.69,0,1,1-9.35,0A4.84,4.84,0,0,1,33.58.38Z" transform="translate(-0.25)"/><path d="M35.89,136.91c.35.2.7.41,1,.63a18,18,0,0,0-1.11,2l-1.07-.65a1,1,0,0,1-.53-1.05c.15-.27.29-.54.45-.8A1,1,0,0,1,35.89,136.91Z" transform="translate(-0.25)"/><path d="M34.75,138.85l1.07.65c-2.93,5.86-3.63,13.39-5.39,19.32l-.26-.38a1.19,1.19,0,0,0-2,.12c2-6.51,2.76-14.53,6.07-20.76A1,1,0,0,0,34.75,138.85Z" transform="translate(-0.25)"/><path d="M34.67,137c-.16.26-.3.53-.45.8A1.25,1.25,0,0,1,34.67,137Z" transform="translate(-0.25)"/><path d="M33.72,121.19c.47.6,1,1.18,1.45,1.76a19.77,19.77,0,0,1-2,1.19c-.52-.59-1-1.19-1.48-1.8A15.45,15.45,0,0,0,33.72,121.19Z" transform="translate(-0.25)"/><path d="M31.67,122.34c.47.61,1,1.21,1.48,1.8-11.62,6-27.41-.91-31.76-13.42-2.51-7.22-.7-14,3.59-20.1,2.91-4.15,7.71-8.12,12.86-7.68,0,.77,0,1.54.05,2.3C12.25,84.6,7.21,90.37,4.84,95,1.9,100.82,1.41,107.31,5,113,10.59,122,22.08,127,31.67,122.34Z" transform="translate(-0.25)"/><path d="M33.72,121.19a15.45,15.45,0,0,1-2.05,1.15q-1.69-2.13-3.21-4.43A64,64,0,0,1,17.89,85.24a7.67,7.67,0,0,1,2.17.57l.07,0A62.65,62.65,0,0,0,33.72,121.19Z" transform="translate(-0.25)"/><path d="M30.17,158.44l.26.38-.15.49a1.16,1.16,0,0,1-1.94.43l-.11-.16a1,1,0,0,1-.16-.38.32.32,0,0,1,0-.14,1.12,1.12,0,0,1,.06-.35.83.83,0,0,0,0-.15A1.19,1.19,0,0,1,30.17,158.44Z" transform="translate(-0.25)"/><path class="cls-1" d="M28.46,117.91q1.52,2.3,3.21,4.43C22.08,127,10.59,122,5,113,1.41,107.31,1.9,100.82,4.84,95c2.37-4.68,7.41-10.45,13.05-9.81A64,64,0,0,0,28.46,117.91Z" transform="translate(-0.25)"/><path d="M28.23,159.57l.11.16a.81.81,0,0,1-.27-.54A1,1,0,0,0,28.23,159.57Z" transform="translate(-0.25)"/><path d="M28.15,158.56a.83.83,0,0,1,0,.15,1.12,1.12,0,0,0-.06.35A.85.85,0,0,1,28.15,158.56Z" transform="translate(-0.25)"/><path d="M20.13,85.83l-.07,0a7.67,7.67,0,0,0-2.17-.57c0-.76-.05-1.53-.05-2.3a9.24,9.24,0,0,1,2.2.48C20.05,84.23,20.08,85,20.13,85.83Z" transform="translate(-0.25)"/><path class="cls-9" d="M29.78,104.06c-.08-.3-.78-2.42-1.24-3.85-.22-.65-.38-1.16-.42-1.3a59,59,0,0,1-2-15.35c0-33.31,27.87-60.32,62.24-60.32s62.25,27,62.25,60.32c0,1.1,0,2.18-.09,3.26a57.46,57.46,0,0,1-1.15,8.77c-.15.75-.33,1.49-.51,2.23A59.56,59.56,0,0,1,136,122.38a62.93,62.93,0,0,1-47.65,21.51l-1.61,0a62.73,62.73,0,0,1-49.15-25.39,59.41,59.41,0,0,1-7.79-14.42" transform="translate(-0.25)"/><path class="cls-9" d="M29.24,100l2.71.34c8.68,1.07,36.83,4.25,64.23,4.24a151.94,151.94,0,0,0,46.21-6.84l2.15-.72c2.7-1,4.13-1.6,4.13-1.6" transform="translate(-0.25)"/><polygon class="cls-9" points="130.28 151.99 132.54 159.37 139.91 161.68 133.61 166.12 133.68 173.84 127.5 169.21 120.2 171.66 122.68 164.35 118.08 158.16 125.8 158.28 130.28 151.99"/><line class="cls-10" x1="41.04" y1="33.74" x2="34.2" y2="10.38"/><path class="cls-11" d="M38.26,5.38a4.69,4.69,0,1,1-9.35,0,4.69,4.69,0,1,1,9.35,0Z" transform="translate(-0.25)"/></g><g id="Highlights"><path class="cls-12" d="M138.08,103.21c-5.64,9.94-15.3,16.37-25.33,21.33-.69.34.63,4.69,0,5,10-5,19.69-11.39,25.33-21.33C138.81,106.93,137.37,104.45,138.08,103.21Z" transform="translate(-0.25)"/><path class="cls-12" d="M59.75,37.21c-12.08,5.65-20.93,16.14-26,28.33-.6,1.43.58,3.59,0,5,5.07-12.19,13.92-22.69,26-28.33C60.42,41.9,59.14,37.49,59.75,37.21Z" transform="translate(-0.25)"/></g><g id="Shade"><path class="cls-13" d="M30.75,116.88c-10,3.26-25.41-3.26-27.33-14.33.28,1.61-.28,3.38,0,5,1.92,11.07,17.3,17.59,27.33,14.33C31.27,121.71,30.29,117,30.75,116.88Z" transform="translate(-0.25)"/><g class="cls-13"><path d="M144.41,125.88a26.13,26.13,0,0,0,27.33-13.67c.69-1.32-.68-3.71,0-5a26.13,26.13,0,0,1-27.33,13.67c.24,0-.31,4.95,0,5Z" transform="translate(-0.25)"/></g></g></g></svg>