<svg xmlns="http://www.w3.org/2000/svg" viewBox="0 0 78.04 85.45" width="78.04" height="85.97">
  <title>Asset 1</title>
  <g id="Layer_2" data-name="Layer 2">
    <g id="Layer_1-2" data-name="Layer 1">
      <path d="M54.28,10.47a17.62,17.62,0,0,1,6.05.53A32.11,32.11,0,0,1,67,14c2.63,1.34,4.34,3.63,6.34,5.6a22.78,22.78,0,0,1,4.47,6.24c.65,1.35,1.35,2.68,2,4,.33.64.18,1.34.42,2,.91,2.64,2.09,5.24,2,8.13,0,.54.25.58.74.64,1.91.24,3.82.51,5.7.93a4.44,4.44,0,0,1,3,2.59A23.78,23.78,0,0,1,93.81,50a18.26,18.26,0,0,1-1.25,11.17,10.73,10.73,0,0,1-6.66,6.19,5.71,5.71,0,0,1-2.34.09c-.88-.1-1,.35-.79,1,1.41,3.88,1.41,8,2.48,12,.33,1.23.73,2.72-.5,3.94a1.59,1.59,0,0,1-1.6.62c-1.38-.23-1.41-.14-1.2,1.29,0,.2.06.4.07.6a5.43,5.43,0,0,1-4.74,5.75c-2.55.4-5.1.86-7.66,1.2-6.42.86-12.83,1.72-19.33,2-3.63.14-7.2-.09-10.8-.27-2.3-.11-4.6.1-6.88-.51-1.36-.36-1.6-.87-1.95-2.19a16.94,16.94,0,0,1-.19-4.95,10.93,10.93,0,0,1,.26-2.24c.22-1-.23-1.3-1.12-1C26.5,85.86,25.69,85.34,26,82a87.11,87.11,0,0,1,1-10.44,11.29,11.29,0,0,1,1.59-4.46c.6-.84,0-1.13-.63-1.13a13,13,0,0,1-5.5-1.32,9.76,9.76,0,0,1-4.92-4.8,18.56,18.56,0,0,1-.79-11.49A10.57,10.57,0,0,1,21,42a3.59,3.59,0,0,1,2.76-1c.63.09.83-.41.9-1a39.56,39.56,0,0,1,1.91-8.36A41.1,41.1,0,0,1,31.67,22a25.44,25.44,0,0,1,3.74-4.63,24.43,24.43,0,0,1,8.76-4.94c2.33-.79,4.61-1.78,7.11-1.94C52.23,10.42,53.2,10.47,54.28,10.47ZM56.62,69A12.43,12.43,0,0,0,59,68.82c1.9-.53,3.89-.65,5.75-1.36C65.86,67,67.15,67,68,66.31c2-1.51,4.53-2.23,6.26-4.23a10.42,10.42,0,0,1,2.88-2.14c1.65-.91,1.47-2.89,1.34-4.41a18,18,0,0,0-1.27-6.17c-.88-1.89-.55-4.12-1.87-5.91-1.16-1.58-1.71-3.53-2.79-5.22-1.53-2.39-3.79-3.78-6-5.29s-4.84-1.8-7.41-2a6.21,6.21,0,0,0-4.34,1c-.84.6-.89,1.46-1.37,2.15s-.72.61-1.06.19a5.2,5.2,0,0,0-5.06-1.93,22.7,22.7,0,0,0-6.46,2c-1.67.76-2.62,2.17-3.68,3.48C35.44,40,33.38,42,32.89,45a.8.8,0,0,1-.26.51c-.78.48-.63,1.28-.52,1.9Q33,52.18,33.62,57a3.9,3.9,0,0,0,1.63,3.17,14.87,14.87,0,0,1,2.24,1.61c2.8,2.39,6.14,3.86,9.44,5.41,1.85.87,3.86.89,5.76,1.42A9.83,9.83,0,0,0,56.62,69ZM52.8,70.21a11.78,11.78,0,0,0-1.49-.29c-3.34-.13-6.13-1.87-9-3.25a18.7,18.7,0,0,1-5.88-4.17c-.51-.57-1-.45-1,.26-.16,2.66-2.61,3.29-4.22,4.24a4.67,4.67,0,0,0-2.53,3.46,46.6,46.6,0,0,0-1,7.78c0,1.63-.18,3.25-.28,4.88,0,.4,0,.62.51.5,1.44-.36,2.86-.78,3.7-2.12a17.49,17.49,0,0,0,2-3.9c.13-.41.43-.83.83-.68s.38.66.25,1.07a4.84,4.84,0,0,1-.27.66c-.43.86-.93,1.68-1.28,2.57s-1.21,1.75-1,2.88A4.93,4.93,0,0,1,32,86.68c-.45,1.41.46,2.4,1,3.48a.8.8,0,0,0,.85.35c.83-.19,1.23.33,1.67.87A9.26,9.26,0,0,1,37,93.82c.14.36.31.54.7.46a11.5,11.5,0,0,1,2.47.12c3.26,0,6.48.62,9.76.27,2.29-.25,4.62-.11,6.9-.38,4.58-.53,9.14-1.22,13.7-1.83,1.5-.2,3-.35,4.5-.53,2.46-.3,2.2-.38,2.53-2.11a7.63,7.63,0,0,1,.49-1.72c.36-.78.58-1.76,1.54-2,.77-.2.67-.59.53-1.14a31,31,0,0,0-1.61-5.2c-.42-.92-.45-2-1.52-2.55a.45.45,0,0,1-.12-.72c.25-.27.54-.23.83,0A5.83,5.83,0,0,1,79.46,79a16.12,16.12,0,0,0,2,3.73,1.62,1.62,0,0,0,2,.77c.91-.34.46-1.14.41-1.77-.21-2.42-.76-4.78-1.1-7.18s-.47-4.79-2-6.78a18.15,18.15,0,0,0-3-2.49A2.54,2.54,0,0,1,77,62.79c0-.33.46-.78.12-1s-.83.21-1.25.46a22.68,22.68,0,0,0-3,2.56c-1.12,1-2.49,1.32-3.7,2a21.89,21.89,0,0,1-7.11,2.71,4.26,4.26,0,0,0-2.09.68c-.36.35.51,1,.61,1.54.06.35.23.68.3,1,.22,1.17-.83,2.36-1.72,1.86-1.13-.64-1.42-.4-1.43.79,0,.26-.06.83-.6.69-.36-.09-.42-.45-.32-.8a3,3,0,0,0-.23-1.75c-.11-.38-.23-1.12-.81-1s-.49.71-.54,1.2c-.08.78.18,1.6-.23,2.34-.11.2-.2.5-.48.46A.65.65,0,0,1,54,76c-.09-.6.36-1.53-.19-1.74s-1,.71-1.67,1c-.07,0-.17,0-.23.06A1.32,1.32,0,0,1,50,75a1.38,1.38,0,0,1,.07-1.87A9.39,9.39,0,0,1,52.8,70.21ZM79.4,42a11.22,11.22,0,0,0-1.18-5c-.91-2.25-2.23-4.34-3.18-6.6a26.63,26.63,0,0,0-6.45-9c-.95-.89-2.06-1.7-3-2.58a14.71,14.71,0,0,0-9-3.9,17.68,17.68,0,0,1-2.74-.21,11,11,0,0,0-4.5.13,32.85,32.85,0,0,0-6.88,2.53,15.71,15.71,0,0,0-5.57,4.07C35.28,23.14,34,25.15,32.51,27a21.4,21.4,0,0,0-2.87,6.24c-.63,1.78-1,3.58-1.51,5.38s-.18,2.33,1.66,2.74c.33.07.54.1.66-.25a24.31,24.31,0,0,1,2-4.05,21.08,21.08,0,0,1,3.28-4.93,24.41,24.41,0,0,1,7.85-5.45,33.73,33.73,0,0,1,13.59-2.33c1.25,0,2.49.52,3.74.55C63.13,25,65,26,67,26.8s3.19,2.28,4.62,3.6a27.65,27.65,0,0,1,5,6.85A52,52,0,0,1,79.4,42ZM26.19,40.83a1.83,1.83,0,0,0,.29-.34,1.39,1.39,0,0,0,.12-.46c.23-3.71,1.61-7.1,3-10.49a11.18,11.18,0,0,1,1.1-2.24c1.21-1.75,2.69-3.3,3.83-5.11a20.37,20.37,0,0,1,4.18-4.52c.93-.79,2.21-.78,3.1-1.47a15.37,15.37,0,0,1,8-2.79c3.91-.39,8-.47,11.79,1.23,2.14,1,4.33,1.74,5.83,3.69a4.86,4.86,0,0,0,1.41,1.23c2.36,1.33,3.37,3.85,5.11,5.73s2.05,4.19,3.19,6.24a49.43,49.43,0,0,1,2.4,5c.49,1.19.51,2.54,1.34,3.68a2.22,2.22,0,0,0,.07-.4A29.76,29.76,0,0,0,78.21,30a27.82,27.82,0,0,0-7-10.5c-2.21-2-4.21-4-7-5.41-4.76-2.44-9.6-2.35-14.62-1.92-1.93.17-3.53,1.26-5.35,1.66a17.29,17.29,0,0,0-7.71,4.36c-3.91,3.49-6.13,8.16-8.41,12.76-1.28,2.58-1.41,5.45-2,8.19A1.83,1.83,0,0,0,26.19,40.83Zm52.33,22c1.52-.42,1.53-.42,1.91-1.43,1.73-4.54.64-8.89-.9-13.21a.78.78,0,0,0-1-.52c-.54.18-.31.71-.15,1,.74,1.39.7,3,1.19,4.43a4.36,4.36,0,0,1,.29,1.63C79.72,57.44,79.73,60.15,78.51,62.84ZM32.39,59.62c.15-.32.22-.39.21-.45-.61-4.78-1.75-9.5-1.66-14.37,0-.46-.27-.4-.56-.29a1,1,0,0,0-.61.82,16.12,16.12,0,0,0-.11,5.22c.24,1.38.71,2.69.93,4.06C30.88,56.36,32,57.74,32.39,59.62Zm2.26,34.46a.58.58,0,0,0,.82-.23.9.9,0,0,0-.26-1.08,5.8,5.8,0,0,0-3-1.45c-.66-.14-.5.31-.44.65C32,93.19,33,93.92,34.66,94.08ZM51.39,74.42c.61,0,2.8-2.26,2.77-2.77s-.35-.38-.62-.34a4.76,4.76,0,0,0-2.49,2.57C51,74.23,51.09,74.41,51.39,74.42ZM78.62,90.59a2.62,2.62,0,0,0,1.8-2.93c-.06-.19-.07-.43-.31-.44a.5.5,0,0,0-.36.25A7.07,7.07,0,0,0,78.62,90.59ZM57.39,71.07c-.38,0-.21.33-.15.59.26,1.06,1.29,1.32,2,1.88.26.21.49,0,.44-.41A3.51,3.51,0,0,0,57.39,71.07Z" transform="translate(-16.13 -10.4)"/>
      <path d="M58,51.45a6.07,6.07,0,0,1-.23,1.19c-.3.83-.77,1.42-1.78.87a1.32,1.32,0,0,0-1.53.13,2.69,2.69,0,0,1-4-2,1.12,1.12,0,0,1,1.26-1.24c1.64.33,3-.65,4.45-.91C57.44,49.29,58.07,49.73,58,51.45Zm-1.86-.33c-.3,0-.63,0-.64.42,0,.53.43.65.81.71s.48-.25.52-.54C56.9,51.15,56.41,51.25,56.13,51.13Z" transform="translate(-16.13 -10.4)"/>
      <path d="M66.47,45.63c-.44.84.27,2.12-.87,3-.86.67-1.55.35-1.81-.36a6.48,6.48,0,0,1-.73-3.53c.25-1.25.81-1.93,1.88-1.87s1.23,1.07,1.52,1.86A3.26,3.26,0,0,1,66.47,45.63Zm-1.21.25c-.09-.64.39-1.62-.41-1.72s-.48,1-.52,1.48-.11,1.52.5,1.55S65,46.29,65.25,45.88Z" transform="translate(-16.13 -10.4)"/>
      <path d="M43.66,47.4c-.23,1-.33,2.06-1.56,2.35A1.41,1.41,0,0,1,40.39,49a5.71,5.71,0,0,1,.07-4.79c.33-.91,1.85-.74,2.3.27A23,23,0,0,1,43.66,47.4Zm-1-.66c.18-.54-.38-1.1-.83-1.69a.24.24,0,0,0-.4,0A2.54,2.54,0,0,0,41,47c.07.67.34,1.6.93,1.6C42.7,48.6,42.46,47.63,42.66,46.73Z" transform="translate(-16.13 -10.4)"/>
    </g>
  </g>
</svg>